<?xml version="1.0" encoding="UTF-8"?><svg id="Calque_6" xmlns="http://www.w3.org/2000/svg" viewBox="0 0 500 500"><defs><style>.cls-1{fill:#93e5e5;}.cls-2{fill:#a1887f;}.cls-3{fill:#2fa37c;}.cls-4{fill:#48b3c1;}</style></defs><path d="m249.36,19.49c-118.74,0-215,96.26-215,215s96.26,215,215,215,215-96.26,215-215S368.1,19.49,249.36,19.49Zm31.35,247.76l-32.34,12.56-31.75-13.99-12.56-32.34,13.99-31.75,32.34-12.56,31.75,13.99,12.56,32.34-13.99,31.75Z"/><path class="cls-1" d="m181.28,59.76c-1.08,9.46-19.67,49.86-1.52,123.91,23.53-52.7,64.68-100.99,139.3-124.15"/><path class="cls-1" d="m179.76,183.66c23.53-52.7,64.68-100.99,139.3-124.15-15.6-7.1-46.27-13.87-70.68-13.29-25.03.6-45.05,4.93-67.1,13.54-1.08,9.46-19.67,49.86-1.52,123.91Z"/><path class="cls-4" d="m168.86,269.06c-32.81-47.48-52.71-107.72-33.74-183.52-14.17,9.64-35.89,32.34-48.07,53.5-12.49,21.7-19.19,41.06-23.28,64.37,7.26,9.34,33.42,41.52,105.09,65.65Z"/><path class="cls-3" d="m334.2,202.06c35.03,52.17,50.42,102.23,34.25,178.68,13.8-10.16,34.68-33.64,46.07-55.23,11.68-22.15,17.67-41.73,20.9-65.18-7.73-5.55-27.72-38.01-101.22-58.26Z"/><path class="cls-4" d="m258.74,147.42c57.45-5.49,119.75,6.51,176.68,60.03-1.51-17.07-10.73-47.1-23.27-68.05-12.86-21.49-26.49-36.77-44.85-51.71-11.69,1.78-52.54,8.93-108.56,59.74Z"/><path class="cls-2" d="m321.83,288.29c-23.73,52.6-65.62,98.12-140.33,121,15.57,7.16,46.22,14.05,70.63,13.56,25.04-.5,45.07-4.75,67.15-13.28,4.06-10.65,17.48-52.67,2.55-121.28Z"/><path class="cls-3" d="m126.68,378.67c8.86-3.48,53.26-6,110.16-56.75-57.58,3.92-119.52-9.78-174.97-64.84"/><path class="cls-3" d="m236.83,321.92c-57.58,3.92-119.52-9.78-174.97-64.84,1.04,17.11,9.44,47.38,21.4,68.66,12.26,21.83,25.47,37.48,43.42,52.92,11.31-1.45,56.73-11.19,110.16-56.75Z"/></svg>