<?xml version="1.0" encoding="UTF-8"?>
<svg id="Full_logo" data-name="Full logo" xmlns="http://www.w3.org/2000/svg" viewBox="0 0 1233.98 200">
  <defs>
    <style>
      .cls-1 {
        fill: #48b3c1;
      }

      .cls-1, .cls-2, .cls-3, .cls-4, .cls-5 {
        stroke-width: 0px;
      }

      .cls-2 {
        fill: #a1887f;
      }

      .cls-4 {
        fill: #93e5e5;
      }

      .cls-5 {
        fill: #2fa37c;
      }
    </style>
  </defs>
  <g>
    <path class="cls-3" d="M517.99,123.19c0,7.02-1.81,13.32-5.42,18.92-3.62,5.59-8.9,9.97-15.87,13.14-6.97,3.17-15.22,4.75-24.77,4.75-11.45,0-20.9-2.16-28.34-6.49-5.28-3.11-9.57-7.27-12.86-12.47-3.3-5.2-4.95-10.25-4.95-15.16,0-2.85.99-5.29,2.97-7.32,1.98-2.03,4.5-3.05,7.56-3.05,2.48,0,4.58.79,6.29,2.37,1.71,1.58,3.18,3.93,4.39,7.04,1.48,3.69,3.07,6.78,4.79,9.26,1.71,2.48,4.13,4.53,7.24,6.13,3.11,1.61,7.2,2.41,12.27,2.41,6.97,0,12.62-1.62,16.98-4.87,4.35-3.25,6.53-7.29,6.53-12.15,0-3.85-1.17-6.98-3.52-9.38-2.35-2.4-5.38-4.23-9.1-5.5-3.72-1.27-8.69-2.61-14.92-4.04-8.34-1.95-15.32-4.23-20.94-6.85-5.62-2.61-10.08-6.17-13.38-10.69-3.3-4.51-4.95-10.12-4.95-16.82s1.74-12.06,5.22-17.02c3.48-4.96,8.52-8.77,15.12-11.44,6.6-2.66,14.35-4,23.27-4,7.12,0,13.28.88,18.48,2.65,5.2,1.77,9.51,4.12,12.94,7.04,3.43,2.93,5.94,6,7.52,9.22,1.58,3.22,2.37,6.36,2.37,9.42,0,2.8-.99,5.32-2.97,7.56s-4.45,3.36-7.4,3.36c-2.69,0-4.74-.67-6.13-2.02-1.4-1.34-2.92-3.55-4.55-6.61-2.11-4.38-4.64-7.8-7.6-10.25-2.96-2.45-7.71-3.68-14.25-3.68-6.07,0-10.96,1.33-14.68,4-3.72,2.66-5.58,5.87-5.58,9.62,0,2.32.63,4.33,1.9,6.02,1.27,1.69,3.01,3.14,5.22,4.35,2.22,1.22,4.46,2.17,6.73,2.85,2.27.69,6.01,1.69,11.24,3.01,6.54,1.53,12.47,3.22,17.77,5.07,5.3,1.85,9.82,4.09,13.54,6.73,3.72,2.64,6.62,5.98,8.71,10.01,2.08,4.04,3.13,8.98,3.13,14.84Z"/>
    <path class="cls-3" d="M614.4,60.11h-52.95v28.5h48.76c3.59,0,6.27.8,8.03,2.41,1.77,1.61,2.65,3.73,2.65,6.37s-.87,4.79-2.61,6.45c-1.74,1.66-4.43,2.49-8.07,2.49h-48.76v33.01h54.78c3.69,0,6.48.86,8.35,2.57,1.87,1.72,2.81,4,2.81,6.85s-.94,4.97-2.81,6.69c-1.87,1.72-4.66,2.57-8.35,2.57h-63.88c-5.12,0-8.8-1.13-11.04-3.4-2.24-2.27-3.36-5.94-3.36-11V56.39c0-3.38.5-6.13,1.5-8.27,1-2.14,2.57-3.69,4.71-4.67,2.14-.98,4.87-1.46,8.19-1.46h62.06c3.75,0,6.53.83,8.35,2.49,1.82,1.66,2.73,3.84,2.73,6.53s-.91,4.95-2.73,6.61c-1.82,1.66-4.61,2.49-8.35,2.49Z"/>
    <path class="cls-3" d="M744.93,121.37c0,3.69-.91,7.69-2.73,11.99-1.82,4.3-4.68,8.52-8.59,12.67-3.91,4.14-8.89,7.51-14.96,10.09-6.07,2.58-13.14,3.88-21.21,3.88-6.12,0-11.69-.58-16.7-1.74-5.01-1.16-9.56-2.97-13.65-5.42-4.09-2.45-7.85-5.69-11.28-9.7-3.06-3.64-5.67-7.72-7.84-12.23-2.16-4.51-3.79-9.33-4.87-14.45-1.08-5.12-1.62-10.55-1.62-16.31,0-9.34,1.36-17.7,4.08-25.09,2.72-7.39,6.61-13.71,11.68-18.96,5.07-5.25,11-9.25,17.81-11.99,6.81-2.74,14.06-4.12,21.77-4.12,9.39,0,17.76,1.87,25.09,5.62,7.33,3.75,12.95,8.38,16.86,13.89,3.91,5.51,5.86,10.73,5.86,15.63,0,2.69-.95,5.07-2.85,7.12-1.9,2.06-4.19,3.09-6.89,3.09-3.01,0-5.26-.71-6.77-2.14-1.5-1.42-3.18-3.88-5.03-7.36-3.06-5.75-6.66-10.05-10.81-12.9s-9.25-4.27-15.32-4.27c-9.66,0-17.35,3.67-23.07,11-5.73,7.34-8.59,17.76-8.59,31.27,0,9.02,1.27,16.53,3.8,22.52,2.53,5.99,6.12,10.46,10.76,13.42,4.64,2.96,10.08,4.43,16.31,4.43,6.75,0,12.47-1.67,17.14-5.03,4.67-3.35,8.19-8.27,10.57-14.76,1-3.06,2.24-5.55,3.72-7.48,1.48-1.92,3.85-2.89,7.12-2.89,2.8,0,5.2.98,7.2,2.93,2,1.95,3.01,4.38,3.01,7.28Z"/>
    <path class="cls-3" d="M797.65,108.39h-8.23v37.28c0,4.91-1.08,8.52-3.25,10.84-2.16,2.32-4.99,3.48-8.47,3.48-3.75,0-6.65-1.22-8.71-3.64-2.06-2.43-3.09-5.99-3.09-10.69V56.39c0-5.07,1.13-8.73,3.4-11,2.27-2.27,5.94-3.4,11-3.4h38.23c5.28,0,9.79.22,13.54.67,3.75.45,7.12,1.36,10.13,2.73,3.64,1.53,6.86,3.72,9.66,6.57,2.8,2.85,4.92,6.16,6.37,9.93,1.45,3.77,2.18,7.77,2.18,11.99,0,8.65-2.44,15.57-7.32,20.74-4.88,5.17-12.28,8.84-22.2,11,4.17,2.22,8.15,5.49,11.95,9.81,3.8,4.33,7.19,8.93,10.17,13.81,2.98,4.88,5.3,9.29,6.97,13.22,1.66,3.93,2.49,6.64,2.49,8.11s-.49,3.05-1.46,4.55c-.98,1.5-2.31,2.69-4,3.56-1.69.87-3.64,1.31-5.86,1.31-2.64,0-4.86-.62-6.65-1.86-1.79-1.24-3.34-2.81-4.63-4.71-1.29-1.9-3.05-4.7-5.26-8.39l-9.42-15.67c-3.38-5.75-6.4-10.13-9.06-13.14-2.67-3.01-5.37-5.07-8.11-6.17-2.74-1.11-6.2-1.66-10.37-1.66ZM811.1,59.63h-21.69v31.9h21.06c5.65,0,10.4-.49,14.25-1.46,3.85-.98,6.79-2.64,8.83-4.99,2.03-2.35,3.05-5.58,3.05-9.7,0-3.22-.82-6.06-2.45-8.51-1.64-2.45-3.91-4.29-6.81-5.5-2.74-1.16-8.15-1.74-16.23-1.74Z"/>
    <path class="cls-3" d="M959.12,60.11h-52.95v28.5h48.76c3.59,0,6.27.8,8.03,2.41,1.77,1.61,2.65,3.73,2.65,6.37s-.87,4.79-2.61,6.45c-1.74,1.66-4.43,2.49-8.07,2.49h-48.76v33.01h54.78c3.69,0,6.48.86,8.35,2.57,1.87,1.72,2.81,4,2.81,6.85s-.94,4.97-2.81,6.69c-1.87,1.72-4.66,2.57-8.35,2.57h-63.88c-5.12,0-8.8-1.13-11.04-3.4-2.24-2.27-3.36-5.94-3.36-11V56.39c0-3.38.5-6.13,1.5-8.27,1-2.14,2.57-3.69,4.71-4.67,2.14-.98,4.87-1.46,8.19-1.46h62.06c3.75,0,6.53.83,8.35,2.49,1.82,1.66,2.73,3.84,2.73,6.53s-.91,4.95-2.73,6.61c-1.82,1.66-4.6,2.49-8.35,2.49Z"/>
    <path class="cls-3" d="M1066.14,61.37h-25.65v84.3c0,4.86-1.08,8.46-3.25,10.8-2.16,2.35-4.96,3.52-8.39,3.52s-6.32-1.19-8.51-3.56c-2.19-2.37-3.28-5.96-3.28-10.76V61.37h-25.65c-4.01,0-6.99-.88-8.94-2.65-1.95-1.77-2.93-4.1-2.93-7.01s1.02-5.38,3.05-7.12c2.03-1.74,4.97-2.61,8.83-2.61h74.72c4.06,0,7.08.9,9.06,2.69,1.98,1.8,2.97,4.14,2.97,7.04s-1,5.24-3.01,7.01c-2.01,1.77-5.01,2.65-9.02,2.65Z"/>
    <path class="cls-3" d="M1180.28,123.19c0,7.02-1.81,13.32-5.42,18.92-3.62,5.59-8.9,9.97-15.87,13.14-6.97,3.17-15.23,4.75-24.78,4.75-11.45,0-20.9-2.16-28.34-6.49-5.28-3.11-9.57-7.27-12.86-12.47-3.3-5.2-4.95-10.25-4.95-15.16,0-2.85.99-5.29,2.97-7.32,1.98-2.03,4.5-3.05,7.56-3.05,2.48,0,4.58.79,6.29,2.37,1.71,1.58,3.18,3.93,4.39,7.04,1.48,3.69,3.07,6.78,4.79,9.26,1.71,2.48,4.13,4.53,7.24,6.13,3.11,1.61,7.2,2.41,12.27,2.41,6.97,0,12.62-1.62,16.98-4.87,4.35-3.25,6.53-7.29,6.53-12.15,0-3.85-1.17-6.98-3.52-9.38-2.35-2.4-5.38-4.23-9.1-5.5-3.72-1.27-8.7-2.61-14.92-4.04-8.34-1.95-15.32-4.23-20.94-6.85s-10.08-6.17-13.38-10.69c-3.3-4.51-4.95-10.12-4.95-16.82s1.74-12.06,5.22-17.02c3.48-4.96,8.52-8.77,15.12-11.44,6.6-2.66,14.35-4,23.27-4,7.12,0,13.28.88,18.48,2.65,5.2,1.77,9.51,4.12,12.94,7.04,3.43,2.93,5.94,6,7.52,9.22s2.37,6.36,2.37,9.42c0,2.8-.99,5.32-2.97,7.56s-4.45,3.36-7.4,3.36c-2.69,0-4.74-.67-6.13-2.02-1.4-1.34-2.92-3.55-4.55-6.61-2.11-4.38-4.64-7.8-7.6-10.25-2.96-2.45-7.7-3.68-14.25-3.68-6.07,0-10.96,1.33-14.68,4-3.72,2.66-5.58,5.87-5.58,9.62,0,2.32.63,4.33,1.9,6.02,1.27,1.69,3.01,3.14,5.22,4.35,2.22,1.22,4.46,2.17,6.73,2.85,2.27.69,6.02,1.69,11.24,3.01,6.54,1.53,12.47,3.22,17.77,5.07,5.3,1.85,9.82,4.09,13.54,6.73,3.72,2.64,6.62,5.98,8.71,10.01,2.08,4.04,3.13,8.98,3.13,14.84Z"/>
  </g>
  <g>
    <path class="cls-3" d="M130.16,60.11h-52.95v28.5h48.76c3.59,0,6.27.8,8.03,2.41s2.65,3.73,2.65,6.37-.87,4.79-2.61,6.45c-1.74,1.66-4.43,2.49-8.07,2.49h-48.76v33.01h54.77c3.69,0,6.48.86,8.35,2.57,1.87,1.72,2.81,4,2.81,6.85s-.94,4.97-2.81,6.69c-1.87,1.72-4.66,2.57-8.35,2.57h-63.88c-5.12,0-8.8-1.13-11.04-3.4-2.24-2.27-3.36-5.94-3.36-11V56.39c0-3.38.5-6.13,1.5-8.27,1-2.14,2.57-3.69,4.71-4.67,2.14-.98,4.87-1.46,8.19-1.46h62.06c3.75,0,6.53.83,8.35,2.49,1.82,1.66,2.73,3.84,2.73,6.53s-.91,4.95-2.73,6.61c-1.82,1.66-4.6,2.49-8.35,2.49Z"/>
    <path class="cls-3" d="M260.69,121.37c0,3.69-.91,7.69-2.73,11.99-1.82,4.3-4.68,8.52-8.59,12.67-3.91,4.14-8.89,7.51-14.96,10.09-6.07,2.58-13.14,3.88-21.21,3.88-6.12,0-11.69-.58-16.7-1.74-5.01-1.16-9.57-2.97-13.65-5.42-4.09-2.45-7.85-5.69-11.28-9.7-3.06-3.64-5.67-7.72-7.84-12.23-2.16-4.51-3.79-9.33-4.87-14.45-1.08-5.12-1.62-10.55-1.62-16.31,0-9.34,1.36-17.7,4.08-25.09,2.72-7.39,6.61-13.71,11.68-18.96,5.06-5.25,11-9.25,17.81-11.99,6.81-2.74,14.06-4.12,21.77-4.12,9.39,0,17.76,1.87,25.09,5.62,7.33,3.75,12.95,8.38,16.86,13.89,3.91,5.51,5.86,10.73,5.86,15.63,0,2.69-.95,5.07-2.85,7.12-1.9,2.06-4.2,3.09-6.89,3.09-3.01,0-5.26-.71-6.77-2.14s-3.18-3.88-5.03-7.36c-3.06-5.75-6.66-10.05-10.8-12.9-4.14-2.85-9.25-4.27-15.32-4.27-9.66,0-17.35,3.67-23.07,11-5.73,7.34-8.59,17.76-8.59,31.27,0,9.02,1.27,16.53,3.8,22.52,2.53,5.99,6.12,10.46,10.77,13.42,4.64,2.96,10.08,4.43,16.31,4.43,6.75,0,12.47-1.67,17.14-5.03,4.67-3.35,8.19-8.27,10.57-14.76,1-3.06,2.24-5.55,3.72-7.48,1.48-1.92,3.85-2.89,7.12-2.89,2.8,0,5.2.98,7.2,2.93,2,1.95,3.01,4.38,3.01,7.28Z"/>
  </g>
  <g>
    <path class="cls-3" d="M386.22,57.59c-11.25-11.25-26.5-17.58-42.41-17.59h0c-15.91,0-31.17,6.32-42.43,17.57-11.25,11.25-17.57,26.51-17.57,42.43s6.32,31.17,17.57,42.43c11.25,11.25,26.51,17.57,42.43,17.57s31.17-6.32,42.43-17.57c11.25-11.25,17.57-26.51,17.57-42.43-.02-15.91-6.34-31.16-17.59-42.41ZM355.69,98.76l-.12.02h0c.3,2.08.02,4.2-.82,6.12-.83,1.93-2.19,3.58-3.91,4.78l-.09-.11c-1.65,1.31-3.62,2.13-5.71,2.37-2.09.24-4.2-.1-6.1-1l.06-.15c-1.94-.79-3.62-2.1-4.86-3.79-1.24-1.68-2-3.68-2.19-5.76l.12-.02c-.3-2.08-.02-4.2.82-6.12.83-1.93,2.19-3.58,3.91-4.78l.09.12h0c1.64-1.31,3.62-2.13,5.71-2.38s4.2.1,6.1,1l-.06.15c1.94.79,3.62,2.11,4.87,3.79,1.24,1.68,2,3.68,2.19,5.76h0Z"/>
    <path class="cls-4" d="M355.77,53.54c-9.3-2.42-19.15-1.98-28.24,1.31-1.4.51-2.24,1.94-2.01,3.41l2.69,17.69c.36,2.36,3.13,3.46,5.02,1.99,3.88-3.03-15.25,12.25,23.72-18.92,2.01-1.61,1.32-4.83-1.17-5.47Z"/>
    <path class="cls-1" d="M390.27,88.17c-2.35-9.22-7.4-17.54-14.5-23.89-1.69-1.51-4.22-1.59-5.99-.18l-13.48,10.78c-1.59,1.27-1.25,3.79.63,4.59,3.22,1.37-20.72-8,29.88,11.77,1.97.77,3.98-1.02,3.46-3.07Z"/>
    <path class="cls-5" d="M377.82,134.32c6.66-6.79,11.16-15.42,12.9-24.79.42-2.23-.82-4.43-2.95-5.21l-16.21-5.93c-1.91-.7-3.88.9-3.6,2.91.49,3.46,0,0,5.43,31.65.36,2.09,2.94,2.88,4.42,1.36Z"/>
    <path class="cls-2" d="M330.48,145.94c9.11,2.73,18.84,2.69,27.94-.12,2.16-.67,3.54-2.79,3.24-5.04l-2.3-17.11c-.27-2.02-2.6-3.02-4.25-1.82-2.83,2.05,0,0-25.48,19.54-1.68,1.29-1.18,3.94.85,4.55Z"/>
    <path class="cls-5" d="M297.57,111.72c2.35,9.22,7.4,17.54,14.5,23.89,1.69,1.51,4.22,1.59,5.99.18l13.48-10.78c1.59-1.27,1.25-3.79-.63-4.59-3.22-1.37,0,0-29.88-11.77-1.97-.78-3.98,1.02-3.46,3.07Z"/>
    <path class="cls-1" d="M310.37,65.5c-6.77,6.68-11.42,15.23-13.32,24.56-.45,2.22.75,4.45,2.86,5.26l16.11,6.21c1.9.73,3.9-.83,3.64-2.85-.44-3.47,0,0-4.89-31.74-.32-2.1-2.89-2.93-4.4-1.44Z"/>
  </g>
</svg>