<?xml version="1.0" encoding="UTF-8"?><svg id="Calque_6" xmlns="http://www.w3.org/2000/svg" viewBox="0 0 651.62 140.17"><defs><style>.cls-1{fill:#93e5e5;}.cls-2{fill:#a1887f;}.cls-3{fill:#2fa37c;}.cls-4{fill:#48b3c1;}</style></defs><path d="m268.56,19.48c-27.96,0-50.63,22.67-50.63,50.63s22.67,50.63,50.63,50.63,50.63-22.67,50.63-50.63-22.67-50.63-50.63-50.63Zm0,71.52c-11.54,0-20.9-9.36-20.9-20.9s9.36-20.9,20.9-20.9,20.9,9.36,20.9,20.9-9.36,20.9-20.9,20.9Z"/><path d="m268.56,31.36c-21.4,0-38.74,17.34-38.74,38.74s17.34,38.74,38.74,38.74,38.74-17.34,38.74-38.74-17.34-38.74-38.74-38.74Zm5.65,44.64l-5.83,2.26-5.72-2.52-2.26-5.83,2.52-5.72,5.83-2.26,5.72,2.52,2.26,5.83-2.52,5.72Z"/><path class="cls-1" d="m256.3,38.62c-.19,1.7-3.54,8.98-.27,22.33,4.24-9.49,11.65-18.2,25.1-22.37"/><path class="cls-1" d="m256.02,60.95c4.24-9.49,11.65-18.2,25.1-22.37-2.81-1.28-8.34-2.5-12.74-2.39-4.51.11-8.12.89-12.09,2.44-.19,1.7-3.54,8.98-.27,22.33Z"/><path class="cls-4" d="m254.06,76.33c-5.91-8.56-9.5-19.41-6.08-33.07-2.55,1.74-6.47,5.83-8.66,9.64s-3.46,7.4-4.19,11.6c1.31,1.68,6.02,7.48,18.94,11.83Z"/><path class="cls-3" d="m283.85,64.26c6.31,9.4,9.08,18.42,6.17,32.2,2.49-1.83,6.25-6.06,8.3-9.95,2.11-3.99,3.18-7.52,3.77-11.75-1.39-1-4.99-6.85-18.24-10.5Z"/><path class="cls-4" d="m270.25,54.42c10.35-.99,21.58,1.17,31.84,10.82-.27-3.08-1.93-8.49-4.19-12.26-2.32-3.87-4.77-6.63-8.08-9.32-2.11.32-9.47,1.61-19.56,10.76Z"/><path class="cls-2" d="m281.62,79.8c-4.28,9.48-11.82,17.68-25.29,21.8,2.81,1.29,8.33,2.53,12.73,2.44s8.12-.86,12.1-2.39c.73-1.92,3.15-9.49.46-21.85Z"/><path class="cls-3" d="m246.46,96.08c1.6-.63,9.6-1.08,19.85-10.23-10.37.71-21.54-1.76-31.53-11.68"/><path class="cls-3" d="m266.3,85.86c-10.37.71-21.54-1.76-31.53-11.68.19,3.08,1.7,8.54,3.86,12.37s4.59,6.75,7.82,9.54c2.04-.26,10.22-2.02,19.85-10.23Z"/><path d="m110.53,79.22v18.77c0,2.49-.25,4.49-.73,5.98-.49,1.49-1.39,2.84-2.71,4.04-1.31,1.2-3,2.36-5.04,3.47-5.92,3.21-11.62,5.54-17.1,7.01-5.48,1.47-11.44,2.2-17.9,2.2-7.53,0-14.38-1.16-20.57-3.47-6.19-2.31-11.47-5.68-15.83-10.08-4.36-4.41-7.71-9.75-10.05-16.03-2.34-6.28-3.51-13.29-3.51-21.04s1.14-14.58,3.41-20.91c2.27-6.32,5.61-11.69,10.02-16.1s9.77-7.78,16.1-10.12c6.32-2.34,13.49-3.51,21.51-3.51,6.59,0,12.42.88,17.5,2.64s9.19,3.97,12.36,6.65c3.16,2.67,5.54,5.5,7.15,8.48,1.6,2.98,2.41,5.63,2.41,7.95,0,2.49-.92,4.62-2.77,6.38-1.85,1.76-4.06,2.64-6.65,2.64-1.42,0-2.79-.33-4.11-1s-2.42-1.6-3.31-2.81c-2.45-3.83-4.52-6.72-6.21-8.68s-3.97-3.61-6.85-4.94c-2.87-1.34-6.53-2-10.99-2s-8.68.79-12.29,2.37c-3.61,1.58-6.69,3.87-9.25,6.88-2.56,3.01-4.52,6.69-5.88,11.05-1.36,4.36-2.04,9.19-2.04,14.49,0,11.49,2.64,20.33,7.92,26.51,5.28,6.19,12.63,9.28,22.07,9.28,4.59,0,8.89-.6,12.92-1.8,4.03-1.2,8.11-2.92,12.26-5.14v-15.9h-15.36c-3.7,0-6.49-.56-8.38-1.67-1.89-1.11-2.84-3.01-2.84-5.68,0-2.18.79-3.98,2.37-5.41,1.58-1.42,3.73-2.14,6.45-2.14h22.51c2.76,0,5.1.25,7.01.73,1.91.49,3.46,1.58,4.64,3.27,1.18,1.69,1.77,4.23,1.77,7.61Z"/><path d="m193.95,36.4h-44.68v24.04h41.14c3.03,0,5.29.68,6.78,2.04,1.49,1.36,2.24,3.15,2.24,5.38s-.73,4.04-2.2,5.44c-1.47,1.4-3.74,2.1-6.81,2.1h-41.14v27.85h46.22c3.12,0,5.46.72,7.05,2.17,1.58,1.45,2.37,3.37,2.37,5.78s-.79,4.2-2.37,5.64c-1.58,1.45-3.93,2.17-7.05,2.17h-53.9c-4.32,0-7.42-.96-9.32-2.87-1.89-1.91-2.84-5.01-2.84-9.28V33.27c0-2.85.42-5.18,1.27-6.98.85-1.8,2.17-3.12,3.97-3.94,1.8-.82,4.11-1.24,6.91-1.24h52.36c3.16,0,5.51.7,7.05,2.1,1.54,1.4,2.3,3.24,2.3,5.51s-.77,4.17-2.3,5.58c-1.54,1.4-3.88,2.1-7.05,2.1Z"/><path d="m424.74,88.1c0,3.12-.77,6.49-2.3,10.12-1.54,3.63-3.95,7.19-7.25,10.69-3.3,3.5-7.5,6.33-12.62,8.52-5.12,2.18-11.09,3.27-17.9,3.27-5.17,0-9.86-.49-14.09-1.47-4.23-.98-8.07-2.5-11.52-4.58-3.45-2.07-6.62-4.8-9.52-8.18-2.58-3.07-4.79-6.51-6.61-10.32-1.83-3.81-3.2-7.87-4.11-12.19-.91-4.32-1.37-8.9-1.37-13.76,0-7.88,1.15-14.94,3.44-21.17,2.29-6.23,5.58-11.57,9.85-16,4.27-4.43,9.28-7.8,15.03-10.12,5.74-2.32,11.87-3.47,18.37-3.47,7.92,0,14.98,1.58,21.17,4.74,6.19,3.16,10.93,7.07,14.23,11.72,3.29,4.65,4.94,9.05,4.94,13.19,0,2.27-.8,4.27-2.4,6.01-1.6,1.74-3.54,2.61-5.81,2.61-2.54,0-4.44-.6-5.71-1.8-1.27-1.2-2.68-3.27-4.24-6.21-2.58-4.85-5.62-8.48-9.12-10.89s-7.8-3.61-12.92-3.61c-8.15,0-14.64,3.09-19.47,9.28-4.83,6.19-7.25,14.98-7.25,26.38,0,7.61,1.07,13.95,3.21,19,2.14,5.05,5.16,8.83,9.08,11.32,3.92,2.49,8.5,3.74,13.76,3.74,5.7,0,10.52-1.41,14.46-4.24,3.94-2.83,6.91-6.98,8.92-12.46.84-2.58,1.89-4.69,3.14-6.31,1.25-1.62,3.25-2.44,6.01-2.44,2.36,0,4.39.82,6.08,2.47,1.69,1.65,2.54,3.7,2.54,6.14Z"/><path d="m505.22,107.94l-4.68-12.29h-39.81l-4.68,12.56c-1.83,4.9-3.38,8.2-4.67,9.92-1.29,1.71-3.41,2.57-6.34,2.57-2.49,0-4.7-.91-6.61-2.74-1.92-1.83-2.87-3.9-2.87-6.21,0-1.34.22-2.71.67-4.14.44-1.42,1.18-3.41,2.2-5.94l25.05-63.58c.71-1.83,1.57-4.02,2.57-6.58,1-2.56,2.07-4.69,3.21-6.38,1.13-1.69,2.63-3.06,4.47-4.11,1.85-1.04,4.13-1.57,6.85-1.57s5.06.52,6.91,1.57c1.85,1.05,3.34,2.39,4.47,4.04,1.14,1.65,2.09,3.42,2.87,5.31.78,1.89,1.77,4.42,2.97,7.58l25.58,63.18c2,4.81,3.01,8.3,3.01,10.49s-.95,4.35-2.84,6.24c-1.89,1.89-4.17,2.84-6.85,2.84-1.56,0-2.89-.28-4.01-.83-1.11-.56-2.05-1.31-2.81-2.27-.76-.96-1.57-2.43-2.44-4.41-.87-1.98-1.61-3.73-2.24-5.24Zm-39.27-27.18h29.25l-14.76-40.41-14.49,40.41Z"/><path d="m574.01,104.26l-15.7-62.38v67.59c0,3.74-.83,6.54-2.5,8.42-1.67,1.87-3.89,2.81-6.65,2.81s-4.85-.92-6.55-2.77c-1.69-1.85-2.54-4.66-2.54-8.45V32c0-4.27,1.11-7.16,3.34-8.65,2.23-1.49,5.23-2.24,9.02-2.24h6.14c3.7,0,6.38.33,8.05,1s2.91,1.87,3.71,3.61c.8,1.74,1.71,4.56,2.74,8.48l14.23,53.63,14.23-53.63c1.02-3.92,1.94-6.75,2.74-8.48.8-1.74,2.04-2.94,3.71-3.61,1.67-.67,4.35-1,8.05-1h6.14c3.78,0,6.79.75,9.02,2.24,2.23,1.49,3.34,4.38,3.34,8.65v77.47c0,3.74-.83,6.54-2.5,8.42s-3.91,2.81-6.71,2.81c-2.63,0-4.79-.94-6.48-2.81-1.69-1.87-2.54-4.67-2.54-8.42V41.88l-15.7,62.38c-1.02,4.05-1.86,7.02-2.5,8.92s-1.84,3.62-3.57,5.18c-1.74,1.56-4.14,2.34-7.21,2.34-2.32,0-4.27-.5-5.88-1.5-1.6-1-2.85-2.28-3.74-3.84-.89-1.56-1.59-3.28-2.1-5.18-.51-1.89-1.04-3.86-1.57-5.91Z"/></svg>